<svg xmlns="http://www.w3.org/2000/svg" xmlns:xlink="http://www.w3.org/1999/xlink" width="500" zoomAndPan="magnify" viewBox="0 0 375 374.999991" height="500" preserveAspectRatio="xMidYMid meet" version="1.0"><defs><g/><clipPath id="942160af2b"><path d="M 7.25 7.25 L 368 7.25 L 368 368 L 7.25 368 Z M 7.25 7.25 " clip-rule="nonzero"/></clipPath></defs><path fill="#ffffff" d="M 286.113281 93.457031 L 88.878906 93.457031 C 88 93.457031 87.128906 93.5 86.253906 93.585938 C 85.382812 93.671875 84.515625 93.800781 83.65625 93.972656 C 82.796875 94.144531 81.949219 94.359375 81.109375 94.613281 C 80.269531 94.867188 79.445312 95.164062 78.636719 95.5 C 77.828125 95.835938 77.035156 96.210938 76.261719 96.625 C 75.492188 97.035156 74.738281 97.488281 74.011719 97.972656 C 73.28125 98.460938 72.578125 98.984375 71.902344 99.539062 C 71.222656 100.09375 70.574219 100.683594 69.957031 101.304688 C 69.335938 101.921875 68.746094 102.570312 68.191406 103.25 C 67.636719 103.925781 67.113281 104.628906 66.625 105.359375 C 66.140625 106.085938 65.6875 106.835938 65.277344 107.609375 C 64.863281 108.382812 64.488281 109.175781 64.152344 109.984375 C 63.816406 110.792969 63.519531 111.617188 63.265625 112.457031 C 63.011719 113.296875 62.796875 114.144531 62.625 115.003906 C 62.453125 115.863281 62.324219 116.730469 62.238281 117.601562 C 62.152344 118.476562 62.109375 119.347656 62.109375 120.226562 L 62.109375 254.765625 C 62.109375 255.644531 62.152344 256.519531 62.238281 257.390625 C 62.324219 258.261719 62.453125 259.128906 62.625 259.988281 C 62.796875 260.847656 63.011719 261.699219 63.265625 262.535156 C 63.519531 263.375 63.816406 264.199219 64.152344 265.007812 C 64.488281 265.816406 64.863281 266.609375 65.277344 267.382812 C 65.6875 268.15625 66.140625 268.90625 66.625 269.636719 C 67.113281 270.363281 67.636719 271.066406 68.191406 271.746094 C 68.746094 272.421875 69.335938 273.070312 69.957031 273.691406 C 70.574219 274.308594 71.222656 274.898438 71.902344 275.453125 C 72.578125 276.011719 73.28125 276.53125 74.011719 277.019531 C 74.738281 277.507812 75.492188 277.957031 76.261719 278.371094 C 77.035156 278.785156 77.828125 279.160156 78.636719 279.492188 C 79.445312 279.828125 80.269531 280.125 81.109375 280.378906 C 81.949219 280.636719 82.796875 280.847656 83.65625 281.019531 C 84.515625 281.191406 85.382812 281.320312 86.253906 281.40625 C 87.128906 281.492188 88 281.539062 88.878906 281.539062 L 286.113281 281.539062 C 286.992188 281.539062 287.867188 281.492188 288.738281 281.40625 C 289.609375 281.320312 290.476562 281.191406 291.335938 281.019531 C 292.195312 280.847656 293.042969 280.636719 293.882812 280.378906 C 294.722656 280.125 295.546875 279.828125 296.355469 279.492188 C 297.164062 279.160156 297.957031 278.785156 298.730469 278.371094 C 299.503906 277.957031 300.253906 277.507812 300.980469 277.019531 C 301.710938 276.53125 302.414062 276.011719 303.089844 275.453125 C 303.769531 274.898438 304.417969 274.308594 305.039062 273.691406 C 305.65625 273.070312 306.246094 272.421875 306.800781 271.746094 C 307.359375 271.066406 307.878906 270.363281 308.367188 269.636719 C 308.851562 268.90625 309.304688 268.15625 309.71875 267.382812 C 310.128906 266.609375 310.503906 265.816406 310.839844 265.007812 C 311.175781 264.199219 311.472656 263.375 311.726562 262.535156 C 311.980469 261.699219 312.195312 260.847656 312.367188 259.988281 C 312.539062 259.128906 312.667969 258.261719 312.753906 257.390625 C 312.839844 256.519531 312.882812 255.644531 312.886719 254.765625 L 312.886719 120.226562 C 312.882812 119.347656 312.839844 118.476562 312.753906 117.601562 C 312.667969 116.730469 312.539062 115.863281 312.367188 115.003906 C 312.195312 114.144531 311.980469 113.296875 311.726562 112.457031 C 311.472656 111.617188 311.175781 110.792969 310.839844 109.984375 C 310.503906 109.175781 310.128906 108.382812 309.71875 107.609375 C 309.304688 106.835938 308.855469 106.085938 308.367188 105.359375 C 307.878906 104.628906 307.359375 103.925781 306.800781 103.25 C 306.246094 102.570312 305.65625 101.921875 305.039062 101.304688 C 304.417969 100.683594 303.769531 100.09375 303.089844 99.539062 C 302.414062 98.984375 301.710938 98.460938 300.980469 97.972656 C 300.253906 97.488281 299.503906 97.035156 298.730469 96.625 C 297.957031 96.210938 297.164062 95.835938 296.355469 95.5 C 295.546875 95.164062 294.722656 94.867188 293.882812 94.613281 C 293.042969 94.359375 292.195312 94.144531 291.335938 93.972656 C 290.476562 93.800781 289.609375 93.671875 288.738281 93.585938 C 287.867188 93.5 286.992188 93.457031 286.113281 93.457031 Z M 284.546875 109.128906 L 187.496094 185.363281 L 90.46875 109.128906 Z M 297.210938 254.765625 C 297.210938 255.496094 297.140625 256.21875 296.996094 256.933594 C 296.855469 257.644531 296.644531 258.339844 296.363281 259.011719 C 296.085938 259.6875 295.742188 260.324219 295.339844 260.929688 C 294.933594 261.535156 294.472656 262.097656 293.960938 262.613281 C 293.445312 263.128906 292.882812 263.585938 292.277344 263.992188 C 291.671875 264.398438 291.03125 264.738281 290.359375 265.019531 C 289.6875 265.296875 288.992188 265.507812 288.277344 265.648438 C 287.566406 265.792969 286.84375 265.863281 286.113281 265.863281 L 88.878906 265.863281 C 88.148438 265.863281 87.429688 265.792969 86.714844 265.648438 C 86 265.507812 85.304688 265.296875 84.632812 265.019531 C 83.960938 264.738281 83.320312 264.398438 82.714844 263.992188 C 82.109375 263.585938 81.550781 263.128906 81.035156 262.613281 C 80.519531 262.097656 80.058594 261.535156 79.652344 260.929688 C 79.25 260.324219 78.90625 259.6875 78.628906 259.011719 C 78.347656 258.339844 78.136719 257.644531 77.996094 256.933594 C 77.855469 256.21875 77.78125 255.496094 77.78125 254.765625 L 77.78125 120.226562 C 77.78125 119.863281 77.851562 119.527344 77.882812 119.175781 L 182.652344 201.460938 C 183.34375 202.003906 184.105469 202.417969 184.933594 202.707031 C 185.765625 202.992188 186.617188 203.136719 187.496094 203.136719 C 188.375 203.136719 189.230469 202.992188 190.058594 202.707031 C 190.890625 202.417969 191.648438 202.003906 192.339844 201.460938 L 297.109375 119.175781 C 297.109375 119.527344 297.210938 119.863281 297.210938 120.226562 Z M 297.210938 254.765625 " fill-opacity="1" fill-rule="nonzero"/><g clip-path="url(#942160af2b)"><path fill="#ffffff" d="M 187.496094 7.25 C 184.546875 7.25 181.597656 7.324219 178.652344 7.46875 C 175.707031 7.613281 172.765625 7.828125 169.828125 8.117188 C 166.894531 8.40625 163.96875 8.769531 161.050781 9.203125 C 158.132812 9.632812 155.226562 10.136719 152.332031 10.714844 C 149.4375 11.289062 146.5625 11.933594 143.699219 12.652344 C 140.839844 13.367188 137.996094 14.15625 135.175781 15.011719 C 132.351562 15.867188 129.550781 16.792969 126.773438 17.785156 C 123.996094 18.78125 121.246094 19.84375 118.519531 20.972656 C 115.792969 22.101562 113.097656 23.292969 110.429688 24.554688 C 107.765625 25.816406 105.128906 27.144531 102.527344 28.535156 C 99.925781 29.925781 97.363281 31.378906 94.832031 32.894531 C 92.300781 34.410156 89.808594 35.988281 87.355469 37.628906 C 84.90625 39.265625 82.492188 40.964844 80.125 42.722656 C 77.753906 44.480469 75.429688 46.292969 73.148438 48.164062 C 70.871094 50.035156 68.636719 51.960938 66.449219 53.941406 C 64.265625 55.925781 62.128906 57.957031 60.042969 60.042969 C 57.957031 62.128906 55.925781 64.265625 53.941406 66.449219 C 51.960938 68.636719 50.035156 70.871094 48.164062 73.148438 C 46.292969 75.429688 44.480469 77.753906 42.722656 80.125 C 40.964844 82.492188 39.265625 84.90625 37.628906 87.355469 C 35.988281 89.808594 34.410156 92.300781 32.894531 94.832031 C 31.378906 97.363281 29.925781 99.925781 28.535156 102.527344 C 27.144531 105.128906 25.816406 107.765625 24.554688 110.429688 C 23.292969 113.097656 22.101562 115.792969 20.972656 118.519531 C 19.84375 121.246094 18.78125 123.996094 17.785156 126.773438 C 16.792969 129.550781 15.867188 132.351562 15.011719 135.175781 C 14.15625 137.996094 13.367188 140.839844 12.652344 143.699219 C 11.933594 146.5625 11.289062 149.4375 10.714844 152.332031 C 10.136719 155.226562 9.632812 158.132812 9.203125 161.050781 C 8.769531 163.96875 8.40625 166.894531 8.117188 169.828125 C 7.828125 172.765625 7.613281 175.707031 7.46875 178.652344 C 7.324219 181.597656 7.25 184.546875 7.25 187.496094 C 7.25 190.445312 7.324219 193.394531 7.46875 196.339844 C 7.613281 199.289062 7.828125 202.226562 8.117188 205.164062 C 8.40625 208.097656 8.769531 211.027344 9.203125 213.945312 C 9.632812 216.863281 10.136719 219.769531 10.714844 222.660156 C 11.289062 225.554688 11.933594 228.429688 12.652344 231.292969 C 13.367188 234.152344 14.15625 236.996094 15.011719 239.820312 C 15.867188 242.640625 16.792969 245.441406 17.785156 248.21875 C 18.78125 250.996094 19.84375 253.75 20.972656 256.472656 C 22.101562 259.199219 23.292969 261.894531 24.554688 264.5625 C 25.816406 267.226562 27.144531 269.863281 28.535156 272.464844 C 29.925781 275.066406 31.378906 277.632812 32.894531 280.160156 C 34.410156 282.691406 35.988281 285.183594 37.628906 287.636719 C 39.265625 290.089844 40.964844 292.5 42.722656 294.867188 C 44.480469 297.238281 46.292969 299.5625 48.164062 301.84375 C 50.035156 304.125 51.960938 306.355469 53.941406 308.542969 C 55.925781 310.726562 57.957031 312.863281 60.042969 314.949219 C 62.128906 317.035156 64.265625 319.070312 66.449219 321.050781 C 68.636719 323.03125 70.871094 324.957031 73.148438 326.828125 C 75.429688 328.699219 77.753906 330.515625 80.125 332.273438 C 82.492188 334.027344 84.90625 335.726562 87.355469 337.367188 C 89.808594 339.003906 92.300781 340.582031 94.832031 342.097656 C 97.363281 343.617188 99.925781 345.070312 102.527344 346.460938 C 105.128906 347.851562 107.765625 349.175781 110.429688 350.4375 C 113.097656 351.699219 115.792969 352.894531 118.519531 354.023438 C 121.246094 355.152344 123.996094 356.210938 126.773438 357.207031 C 129.550781 358.199219 132.351562 359.125 135.175781 359.980469 C 137.996094 360.835938 140.839844 361.625 143.699219 362.339844 C 146.5625 363.058594 149.4375 363.703125 152.332031 364.277344 C 155.226562 364.855469 158.132812 365.359375 161.050781 365.792969 C 163.96875 366.222656 166.894531 366.585938 169.828125 366.875 C 172.765625 367.164062 175.707031 367.378906 178.652344 367.527344 C 181.597656 367.671875 184.546875 367.742188 187.496094 367.742188 C 190.445312 367.742188 193.394531 367.671875 196.339844 367.527344 C 199.289062 367.378906 202.226562 367.164062 205.164062 366.875 C 208.097656 366.585938 211.027344 366.226562 213.945312 365.792969 C 216.863281 365.359375 219.769531 364.855469 222.660156 364.277344 C 225.554688 363.703125 228.429688 363.058594 231.292969 362.339844 C 234.152344 361.625 236.996094 360.835938 239.820312 359.980469 C 242.640625 359.125 245.441406 358.199219 248.21875 357.207031 C 250.996094 356.210938 253.75 355.152344 256.472656 354.023438 C 259.199219 352.894531 261.894531 351.699219 264.5625 350.4375 C 267.226562 349.175781 269.863281 347.851562 272.464844 346.460938 C 275.066406 345.070312 277.632812 343.617188 280.160156 342.097656 C 282.691406 340.582031 285.183594 339.003906 287.636719 337.367188 C 290.089844 335.726562 292.5 334.027344 294.867188 332.273438 C 297.238281 330.515625 299.5625 328.699219 301.84375 326.828125 C 304.125 324.957031 306.355469 323.03125 308.542969 321.050781 C 310.726562 319.070312 312.863281 317.035156 314.949219 314.949219 C 317.035156 312.863281 319.070312 310.726562 321.050781 308.542969 C 323.03125 306.355469 324.957031 304.125 326.828125 301.84375 C 328.699219 299.5625 330.515625 297.238281 332.273438 294.867188 C 334.027344 292.5 335.726562 290.089844 337.367188 287.636719 C 339.003906 285.183594 340.582031 282.691406 342.097656 280.160156 C 343.617188 277.632812 345.070312 275.066406 346.460938 272.464844 C 347.851562 269.863281 349.175781 267.226562 350.4375 264.5625 C 351.699219 261.894531 352.894531 259.199219 354.023438 256.472656 C 355.152344 253.75 356.210938 250.996094 357.207031 248.21875 C 358.199219 245.441406 359.125 242.640625 359.980469 239.820312 C 360.835938 236.996094 361.625 234.152344 362.339844 231.292969 C 363.058594 228.429688 363.703125 225.554688 364.277344 222.660156 C 364.855469 219.769531 365.359375 216.863281 365.792969 213.945312 C 366.222656 211.027344 366.585938 208.097656 366.875 205.164062 C 367.164062 202.226562 367.378906 199.289062 367.527344 196.339844 C 367.671875 193.394531 367.742188 190.445312 367.742188 187.496094 C 367.738281 184.546875 367.664062 181.601562 367.515625 178.65625 C 367.367188 175.710938 367.148438 172.769531 366.855469 169.835938 C 366.5625 166.902344 366.199219 163.976562 365.765625 161.058594 C 365.328125 158.140625 364.824219 155.238281 364.246094 152.347656 C 363.667969 149.453125 363.019531 146.578125 362.300781 143.71875 C 361.582031 140.859375 360.792969 138.019531 359.9375 135.195312 C 359.078125 132.375 358.152344 129.578125 357.15625 126.800781 C 356.160156 124.023438 355.097656 121.273438 353.96875 118.550781 C 352.835938 115.828125 351.640625 113.132812 350.378906 110.46875 C 349.117188 107.800781 347.789062 105.167969 346.398438 102.570312 C 345.007812 99.96875 343.554688 97.40625 342.039062 94.875 C 340.519531 92.347656 338.941406 89.855469 337.304688 87.40625 C 335.664062 84.953125 333.964844 82.542969 332.207031 80.175781 C 330.453125 77.808594 328.636719 75.484375 326.765625 73.203125 C 324.894531 70.925781 322.96875 68.691406 320.988281 66.507812 C 319.007812 64.324219 316.976562 62.1875 314.890625 60.101562 C 312.804688 58.019531 310.671875 55.984375 308.484375 54.003906 C 306.300781 52.023438 304.066406 50.097656 301.789062 48.226562 C 299.507812 46.355469 297.1875 44.542969 294.816406 42.785156 C 292.449219 41.027344 290.039062 39.328125 287.585938 37.691406 C 285.136719 36.050781 282.644531 34.472656 280.117188 32.957031 C 277.589844 31.4375 275.023438 29.984375 272.421875 28.59375 C 269.824219 27.203125 267.191406 25.875 264.527344 24.613281 C 261.859375 23.351562 259.164062 22.15625 256.441406 21.023438 C 253.71875 19.894531 250.96875 18.832031 248.191406 17.835938 C 245.417969 16.84375 242.617188 15.914062 239.796875 15.058594 C 236.976562 14.199219 234.132812 13.410156 231.273438 12.691406 C 228.414062 11.972656 225.539062 11.324219 222.648438 10.746094 C 219.753906 10.167969 216.851562 9.664062 213.933594 9.226562 C 211.015625 8.792969 208.09375 8.429688 205.15625 8.136719 C 202.222656 7.84375 199.28125 7.625 196.339844 7.476562 C 193.394531 7.328125 190.445312 7.253906 187.496094 7.25 Z M 187.496094 352.070312 C 184.804688 352.070312 182.113281 352.003906 179.421875 351.871094 C 176.730469 351.738281 174.046875 351.539062 171.367188 351.277344 C 168.683594 351.011719 166.011719 350.683594 163.347656 350.289062 C 160.683594 349.890625 158.03125 349.433594 155.390625 348.90625 C 152.75 348.382812 150.121094 347.792969 147.507812 347.136719 C 144.894531 346.484375 142.300781 345.765625 139.722656 344.984375 C 137.144531 344.199219 134.589844 343.355469 132.054688 342.449219 C 129.519531 341.542969 127.003906 340.574219 124.515625 339.542969 C 122.027344 338.511719 119.566406 337.417969 117.132812 336.269531 C 114.699219 335.117188 112.292969 333.90625 109.917969 332.636719 C 107.542969 331.367188 105.199219 330.039062 102.890625 328.65625 C 100.578125 327.269531 98.304688 325.828125 96.066406 324.332031 C 93.824219 322.835938 91.625 321.285156 89.460938 319.683594 C 87.296875 318.078125 85.175781 316.421875 83.09375 314.710938 C 81.011719 313.003906 78.972656 311.246094 76.976562 309.4375 C 74.980469 307.628906 73.03125 305.769531 71.125 303.867188 C 69.222656 301.960938 67.363281 300.011719 65.554688 298.015625 C 63.746094 296.019531 61.988281 293.980469 60.28125 291.898438 C 58.570312 289.816406 56.914062 287.695312 55.3125 285.53125 C 53.707031 283.367188 52.15625 281.167969 50.660156 278.929688 C 49.164062 276.6875 47.722656 274.414062 46.339844 272.105469 C 44.953125 269.792969 43.625 267.449219 42.355469 265.074219 C 41.085938 262.699219 39.875 260.296875 38.726562 257.859375 C 37.574219 255.425781 36.480469 252.964844 35.453125 250.476562 C 34.421875 247.988281 33.453125 245.476562 32.542969 242.9375 C 31.636719 240.402344 30.792969 237.847656 30.011719 235.269531 C 29.230469 232.691406 28.511719 230.097656 27.855469 227.484375 C 27.203125 224.871094 26.613281 222.246094 26.085938 219.601562 C 25.5625 216.960938 25.101562 214.308594 24.707031 211.644531 C 24.308594 208.980469 23.980469 206.308594 23.714844 203.628906 C 23.453125 200.945312 23.253906 198.261719 23.121094 195.570312 C 22.988281 192.882812 22.925781 190.191406 22.925781 187.496094 C 22.925781 184.804688 22.988281 182.113281 23.121094 179.421875 C 23.253906 176.730469 23.453125 174.046875 23.714844 171.367188 C 23.980469 168.683594 24.308594 166.011719 24.707031 163.347656 C 25.101562 160.683594 25.5625 158.03125 26.085938 155.390625 C 26.613281 152.75 27.203125 150.121094 27.855469 147.507812 C 28.511719 144.894531 29.230469 142.300781 30.011719 139.722656 C 30.792969 137.144531 31.636719 134.589844 32.542969 132.054688 C 33.453125 129.519531 34.421875 127.003906 35.453125 124.515625 C 36.480469 122.027344 37.574219 119.566406 38.726562 117.132812 C 39.875 114.699219 41.085938 112.292969 42.355469 109.917969 C 43.625 107.542969 44.953125 105.199219 46.339844 102.890625 C 47.722656 100.578125 49.164062 98.304688 50.660156 96.066406 C 52.15625 93.824219 53.707031 91.625 55.3125 89.460938 C 56.914062 87.296875 58.570312 85.175781 60.28125 83.09375 C 61.988281 81.011719 63.746094 78.972656 65.554688 76.976562 C 67.363281 74.980469 69.222656 73.03125 71.125 71.125 C 73.03125 69.222656 74.980469 67.363281 76.976562 65.554688 C 78.972656 63.746094 81.011719 61.988281 83.09375 60.28125 C 85.175781 58.570312 87.296875 56.914062 89.460938 55.3125 C 91.625 53.707031 93.824219 52.15625 96.066406 50.660156 C 98.304688 49.164062 100.578125 47.722656 102.890625 46.339844 C 105.199219 44.953125 107.542969 43.625 109.917969 42.355469 C 112.292969 41.085938 114.699219 39.875 117.132812 38.726562 C 119.566406 37.574219 122.027344 36.480469 124.515625 35.453125 C 127.003906 34.421875 129.519531 33.453125 132.054688 32.542969 C 134.589844 31.636719 137.144531 30.792969 139.722656 30.011719 C 142.300781 29.230469 144.894531 28.511719 147.507812 27.855469 C 150.121094 27.203125 152.75 26.613281 155.390625 26.085938 C 158.03125 25.5625 160.683594 25.101562 163.347656 24.707031 C 166.011719 24.308594 168.683594 23.980469 171.367188 23.714844 C 174.046875 23.453125 176.730469 23.253906 179.421875 23.121094 C 182.113281 22.988281 184.804688 22.925781 187.496094 22.925781 C 190.191406 22.925781 192.882812 22.988281 195.570312 23.121094 C 198.261719 23.253906 200.945312 23.453125 203.628906 23.714844 C 206.308594 23.980469 208.980469 24.308594 211.644531 24.707031 C 214.308594 25.101562 216.960938 25.5625 219.601562 26.085938 C 222.246094 26.613281 224.871094 27.203125 227.484375 27.855469 C 230.097656 28.511719 232.691406 29.230469 235.269531 30.011719 C 237.847656 30.792969 240.402344 31.636719 242.9375 32.542969 C 245.476562 33.453125 247.988281 34.421875 250.476562 35.453125 C 252.964844 36.480469 255.425781 37.574219 257.859375 38.726562 C 260.296875 39.875 262.699219 41.085938 265.074219 42.355469 C 267.449219 43.625 269.792969 44.953125 272.105469 46.339844 C 274.414062 47.722656 276.6875 49.164062 278.929688 50.660156 C 281.167969 52.15625 283.367188 53.707031 285.53125 55.3125 C 287.695312 56.914062 289.816406 58.570312 291.898438 60.28125 C 293.980469 61.988281 296.019531 63.746094 298.015625 65.554688 C 300.011719 67.363281 301.960938 69.222656 303.867188 71.125 C 305.769531 73.03125 307.628906 74.980469 309.4375 76.976562 C 311.246094 78.972656 313.003906 81.011719 314.710938 83.09375 C 316.421875 85.175781 318.078125 87.296875 319.683594 89.460938 C 321.285156 91.625 322.835938 93.824219 324.332031 96.066406 C 325.828125 98.304688 327.269531 100.578125 328.65625 102.890625 C 330.039062 105.199219 331.367188 107.542969 332.636719 109.917969 C 333.90625 112.292969 335.117188 114.699219 336.269531 117.132812 C 337.417969 119.566406 338.511719 122.027344 339.542969 124.515625 C 340.574219 127.003906 341.542969 129.519531 342.449219 132.054688 C 343.355469 134.589844 344.199219 137.144531 344.984375 139.722656 C 345.765625 142.300781 346.484375 144.894531 347.136719 147.507812 C 347.792969 150.121094 348.382812 152.75 348.90625 155.390625 C 349.433594 158.03125 349.894531 160.683594 350.289062 163.347656 C 350.683594 166.011719 351.011719 168.683594 351.277344 171.367188 C 351.539062 174.046875 351.738281 176.730469 351.871094 179.421875 C 352.003906 182.113281 352.070312 184.804688 352.070312 187.496094 C 352.066406 190.1875 351.996094 192.878906 351.863281 195.570312 C 351.726562 198.257812 351.527344 200.941406 351.261719 203.621094 C 350.992188 206.300781 350.660156 208.972656 350.265625 211.636719 C 349.867188 214.296875 349.40625 216.949219 348.878906 219.589844 C 348.351562 222.230469 347.757812 224.855469 347.101562 227.46875 C 346.445312 230.078125 345.726562 232.671875 344.941406 235.25 C 344.160156 237.824219 343.3125 240.378906 342.40625 242.914062 C 341.496094 245.449219 340.527344 247.960938 339.492188 250.449219 C 338.460938 252.933594 337.371094 255.394531 336.21875 257.828125 C 335.066406 260.261719 333.855469 262.664062 332.582031 265.039062 C 331.3125 267.414062 329.984375 269.753906 328.601562 272.066406 C 327.214844 274.375 325.773438 276.648438 324.277344 278.886719 C 322.78125 281.125 321.230469 283.324219 319.628906 285.488281 C 318.023438 287.648438 316.367188 289.769531 314.65625 291.851562 C 312.949219 293.933594 311.191406 295.972656 309.382812 297.964844 C 307.574219 299.960938 305.71875 301.910156 303.8125 303.8125 C 301.910156 305.71875 299.960938 307.574219 297.964844 309.382812 C 295.972656 311.191406 293.933594 312.949219 291.851562 314.65625 C 289.769531 316.367188 287.648438 318.023438 285.488281 319.628906 C 283.324219 321.230469 281.125 322.78125 278.886719 324.277344 C 276.648438 325.773438 274.375 327.214844 272.066406 328.601562 C 269.753906 329.984375 267.414062 331.3125 265.039062 332.582031 C 262.664062 333.855469 260.261719 335.066406 257.828125 336.21875 C 255.394531 337.371094 252.933594 338.460938 250.449219 339.492188 C 247.960938 340.527344 245.449219 341.496094 242.914062 342.40625 C 240.378906 343.3125 237.824219 344.160156 235.25 344.941406 C 232.671875 345.726562 230.078125 346.445312 227.46875 347.101562 C 224.855469 347.757812 222.230469 348.351562 219.589844 348.878906 C 216.949219 349.40625 214.296875 349.867188 211.636719 350.265625 C 208.972656 350.660156 206.300781 350.992188 203.621094 351.261719 C 200.941406 351.527344 198.257812 351.726562 195.570312 351.863281 C 192.878906 351.996094 190.1875 352.066406 187.496094 352.070312 Z M 187.496094 352.070312 " fill-opacity="1" fill-rule="nonzero"/></g><g fill="#000000" fill-opacity="1"><g transform="translate(215.033194, 68.295992)"><g><path d="M 1.703125 0 L 1.703125 -16.609375 L 4.6875 -16.609375 L 4.6875 -10.296875 L 4.90625 -10.265625 C 5.300781 -10.835938 5.785156 -11.28125 6.359375 -11.59375 C 6.929688 -11.914062 7.625 -12.078125 8.4375 -12.078125 C 11.050781 -12.078125 12.359375 -10.59375 12.359375 -7.625 L 12.359375 0 L 9.375 0 L 9.375 -7.25 C 9.375 -8.0625 9.210938 -8.648438 8.890625 -9.015625 C 8.566406 -9.378906 8.066406 -9.5625 7.390625 -9.5625 C 6.554688 -9.5625 5.894531 -9.28125 5.40625 -8.71875 C 4.925781 -8.164062 4.6875 -7.304688 4.6875 -6.140625 L 4.6875 0 Z M 1.703125 0 "/></g></g></g><g fill="#000000" fill-opacity="1"><g transform="translate(228.909635, 68.295992)"><g><path d="M 11.703125 -5.25 L 4.09375 -5.25 C 4.175781 -4.21875 4.46875 -3.46875 4.96875 -3 C 5.46875 -2.53125 6.15625 -2.296875 7.03125 -2.296875 C 7.707031 -2.296875 8.253906 -2.421875 8.671875 -2.671875 C 9.097656 -2.929688 9.441406 -3.316406 9.703125 -3.828125 L 9.921875 -3.828125 L 11.90625 -2.5625 C 11.519531 -1.738281 10.9375 -1.066406 10.15625 -0.546875 C 9.375 -0.0351562 8.332031 0.21875 7.03125 0.21875 C 5.800781 0.21875 4.738281 -0.0078125 3.84375 -0.46875 C 2.957031 -0.9375 2.269531 -1.628906 1.78125 -2.546875 C 1.300781 -3.472656 1.0625 -4.597656 1.0625 -5.921875 C 1.0625 -7.265625 1.316406 -8.394531 1.828125 -9.3125 C 2.335938 -10.238281 3.023438 -10.929688 3.890625 -11.390625 C 4.753906 -11.847656 5.726562 -12.078125 6.8125 -12.078125 C 8.488281 -12.078125 9.769531 -11.628906 10.65625 -10.734375 C 11.550781 -9.847656 12 -8.546875 12 -6.828125 C 12 -6.203125 11.976562 -5.71875 11.9375 -5.375 Z M 9.15625 -7.171875 C 9.125 -8.078125 8.910156 -8.734375 8.515625 -9.140625 C 8.128906 -9.554688 7.5625 -9.765625 6.8125 -9.765625 C 5.3125 -9.765625 4.425781 -8.898438 4.15625 -7.171875 Z M 9.15625 -7.171875 "/></g></g></g><g fill="#000000" fill-opacity="1"><g transform="translate(241.787235, 68.295992)"><g><path d="M 1.703125 0 L 1.703125 -16.609375 L 4.6875 -16.609375 L 4.6875 -10.296875 L 4.90625 -10.265625 C 5.300781 -10.835938 5.785156 -11.28125 6.359375 -11.59375 C 6.929688 -11.914062 7.625 -12.078125 8.4375 -12.078125 C 11.050781 -12.078125 12.359375 -10.59375 12.359375 -7.625 L 12.359375 0 L 9.375 0 L 9.375 -7.25 C 9.375 -8.0625 9.210938 -8.648438 8.890625 -9.015625 C 8.566406 -9.378906 8.066406 -9.5625 7.390625 -9.5625 C 6.554688 -9.5625 5.894531 -9.28125 5.40625 -8.71875 C 4.925781 -8.164062 4.6875 -7.304688 4.6875 -6.140625 L 4.6875 0 Z M 1.703125 0 "/></g></g></g><g fill="#000000" fill-opacity="1"><g transform="translate(255.663677, 68.295992)"><g><path d="M 11.703125 -5.25 L 4.09375 -5.25 C 4.175781 -4.21875 4.46875 -3.46875 4.96875 -3 C 5.46875 -2.53125 6.15625 -2.296875 7.03125 -2.296875 C 7.707031 -2.296875 8.253906 -2.421875 8.671875 -2.671875 C 9.097656 -2.929688 9.441406 -3.316406 9.703125 -3.828125 L 9.921875 -3.828125 L 11.90625 -2.5625 C 11.519531 -1.738281 10.9375 -1.066406 10.15625 -0.546875 C 9.375 -0.0351562 8.332031 0.21875 7.03125 0.21875 C 5.800781 0.21875 4.738281 -0.0078125 3.84375 -0.46875 C 2.957031 -0.9375 2.269531 -1.628906 1.78125 -2.546875 C 1.300781 -3.472656 1.0625 -4.597656 1.0625 -5.921875 C 1.0625 -7.265625 1.316406 -8.394531 1.828125 -9.3125 C 2.335938 -10.238281 3.023438 -10.929688 3.890625 -11.390625 C 4.753906 -11.847656 5.726562 -12.078125 6.8125 -12.078125 C 8.488281 -12.078125 9.769531 -11.628906 10.65625 -10.734375 C 11.550781 -9.847656 12 -8.546875 12 -6.828125 C 12 -6.203125 11.976562 -5.71875 11.9375 -5.375 Z M 9.15625 -7.171875 C 9.125 -8.078125 8.910156 -8.734375 8.515625 -9.140625 C 8.128906 -9.554688 7.5625 -9.765625 6.8125 -9.765625 C 5.3125 -9.765625 4.425781 -8.898438 4.15625 -7.171875 Z M 9.15625 -7.171875 "/></g></g></g></svg>