<svg xmlns="http://www.w3.org/2000/svg" xmlns:xlink="http://www.w3.org/1999/xlink" width="500" zoomAndPan="magnify" viewBox="0 0 375 374.999991" height="500" preserveAspectRatio="xMidYMid meet" version="1.0"><defs><g/><clipPath id="84c4b8d1b6"><path d="M 3.976562 3.976562 L 369.226562 3.976562 L 369.226562 369.226562 L 3.976562 369.226562 Z M 3.976562 3.976562 " clip-rule="nonzero"/></clipPath></defs><g clip-path="url(#84c4b8d1b6)"><path fill="#ffffff" d="M 68.796875 3.976562 L 304.109375 3.976562 C 322.082031 3.976562 338.339844 11.25 350.105469 23.015625 C 361.871094 34.78125 369.144531 51.039062 369.144531 68.796875 L 369.144531 304.109375 C 369.144531 322.082031 361.871094 338.339844 350.105469 350.105469 C 338.339844 361.871094 322.082031 369.144531 304.109375 369.144531 L 68.796875 369.144531 C 51.039062 369.144531 34.78125 361.871094 23.015625 350.105469 C 11.25 338.339844 3.976562 322.082031 3.976562 304.109375 L 3.976562 68.796875 C 3.976562 51.039062 11.25 34.78125 23.015625 23.015625 C 34.78125 11.25 51.039062 3.976562 68.796875 3.976562 Z M 304.109375 23.015625 L 68.796875 23.015625 C 56.171875 23.015625 44.835938 28.148438 36.492188 36.492188 C 28.148438 44.835938 23.015625 56.171875 23.015625 68.796875 L 23.015625 304.109375 C 23.015625 316.734375 28.148438 328.285156 36.492188 336.628906 C 44.835938 344.757812 56.171875 350.105469 68.796875 350.105469 L 304.109375 350.105469 C 316.734375 350.105469 328.285156 344.757812 336.628906 336.628906 C 344.757812 328.285156 350.105469 316.734375 350.105469 304.109375 L 350.105469 68.796875 C 350.105469 56.171875 344.757812 44.835938 336.628906 36.492188 C 328.285156 28.148438 316.734375 23.015625 304.109375 23.015625 Z M 304.109375 23.015625 " fill-opacity="1" fill-rule="nonzero"/></g><path fill="#ffffff" d="M 70.71875 130.617188 L 106.019531 130.617188 C 110.082031 130.617188 113.71875 132.117188 116.285156 134.683594 C 119.066406 137.25 120.992188 140.886719 120.992188 145.164062 L 120.992188 308.816406 C 120.992188 312.882812 119.066406 316.734375 116.285156 319.300781 C 113.71875 321.867188 110.082031 323.363281 106.019531 323.363281 L 70.71875 323.363281 C 66.65625 323.363281 63.019531 321.867188 60.453125 319.300781 C 57.457031 316.734375 55.746094 312.882812 55.746094 308.816406 L 55.746094 145.164062 C 55.746094 140.886719 57.457031 137.25 60.453125 134.683594 C 63.019531 132.117188 66.65625 130.617188 70.71875 130.617188 Z M 101.953125 149.660156 L 74.785156 149.660156 L 74.785156 304.324219 L 101.953125 304.324219 Z M 101.953125 149.660156 " fill-opacity="1" fill-rule="nonzero"/><path fill="#ffffff" d="M 159.925781 130.191406 L 195.222656 130.191406 C 199.289062 130.191406 202.925781 131.902344 205.492188 134.253906 C 208.488281 137.035156 210.199219 140.671875 210.199219 144.738281 L 210.199219 146.023438 C 217.898438 140.886719 226.671875 137.035156 235.65625 134.898438 C 248.0625 131.902344 261.113281 131.6875 273.09375 134.46875 C 285.285156 137.464844 296.625 143.882812 304.539062 153.9375 C 312.453125 163.5625 317.160156 176.613281 317.160156 192.871094 L 317.160156 308.390625 C 317.160156 312.453125 315.449219 316.089844 312.667969 318.871094 C 310.101562 321.226562 306.464844 322.9375 302.398438 322.9375 L 266.886719 322.9375 C 263.039062 322.9375 259.402344 321.226562 256.621094 318.871094 C 253.839844 316.089844 252.128906 312.453125 252.128906 308.390625 L 252.128906 217.042969 C 252.128906 208.488281 247.207031 203.140625 241.003906 200.785156 C 238.222656 199.714844 235.015625 199.289062 232.019531 199.289062 C 228.808594 199.289062 225.601562 199.929688 222.605469 201 C 215.546875 203.566406 210.199219 208.914062 210.199219 217.042969 L 210.199219 308.816406 C 210.199219 312.882812 208.488281 316.734375 205.492188 319.300781 C 202.925781 321.867188 199.289062 323.363281 195.222656 323.363281 L 159.925781 323.363281 C 155.863281 323.363281 152.226562 321.867188 149.660156 319.300781 C 146.878906 316.734375 144.953125 312.882812 144.953125 308.816406 L 144.953125 144.738281 C 144.953125 140.671875 146.878906 137.035156 149.660156 134.253906 C 152.226562 131.902344 155.863281 130.191406 159.925781 130.191406 Z M 191.160156 149.230469 L 163.992188 149.230469 L 163.992188 304.324219 L 191.160156 304.324219 L 191.160156 217.042969 C 191.160156 199.714844 202.070312 188.164062 216.1875 183.03125 C 221.109375 181.320312 226.457031 180.464844 231.804688 180.25 C 237.152344 180.25 242.5 181.105469 247.636719 183.03125 C 260.898438 187.949219 271.167969 199.074219 271.167969 217.042969 L 271.167969 303.898438 L 298.121094 303.898438 L 298.121094 192.871094 C 298.121094 181.320312 294.914062 172.335938 289.777344 165.917969 C 284.429688 159.285156 276.941406 155.007812 268.601562 152.867188 C 259.613281 150.726562 249.773438 150.941406 240.363281 153.292969 C 227.527344 156.503906 215.972656 163.347656 208.488281 173.617188 C 206.777344 176.183594 203.996094 177.683594 200.570312 177.683594 C 195.4375 177.683594 191.160156 173.402344 191.160156 168.269531 Z M 191.160156 149.230469 " fill-opacity="1" fill-rule="nonzero"/><path fill="#ffffff" d="M 88.261719 49.542969 C 97.886719 49.542969 106.660156 53.605469 112.863281 59.808594 C 119.066406 66.015625 122.917969 74.785156 122.917969 84.199219 C 122.917969 93.824219 119.066406 102.382812 112.863281 108.796875 C 106.660156 115.003906 97.886719 118.851562 88.261719 118.851562 C 78.847656 118.851562 70.078125 115.003906 63.875 108.796875 C 57.671875 102.382812 53.820312 93.824219 53.820312 84.199219 C 53.820312 74.785156 57.671875 66.015625 63.875 59.808594 C 70.078125 53.605469 78.847656 49.542969 88.261719 49.542969 Z M 99.386719 73.289062 C 96.605469 70.507812 92.753906 68.796875 88.261719 68.796875 C 83.984375 68.796875 80.132812 70.507812 77.351562 73.289062 C 74.570312 76.070312 72.859375 79.917969 72.859375 84.199219 C 72.859375 88.476562 74.570312 92.539062 77.351562 95.320312 C 80.132812 98.101562 83.984375 99.8125 88.261719 99.8125 C 92.753906 99.8125 96.605469 98.101562 99.386719 95.320312 C 102.167969 92.539062 103.878906 88.476562 103.878906 84.199219 C 103.878906 79.917969 102.167969 76.070312 99.386719 73.289062 Z M 99.386719 73.289062 " fill-opacity="1" fill-rule="nonzero"/><g fill="#000000" fill-opacity="1"><g transform="translate(215.033194, 68.295992)"><g><path d="M 1.703125 0 L 1.703125 -16.609375 L 4.6875 -16.609375 L 4.6875 -10.296875 L 4.90625 -10.265625 C 5.300781 -10.835938 5.785156 -11.28125 6.359375 -11.59375 C 6.929688 -11.914062 7.625 -12.078125 8.4375 -12.078125 C 11.050781 -12.078125 12.359375 -10.59375 12.359375 -7.625 L 12.359375 0 L 9.375 0 L 9.375 -7.25 C 9.375 -8.0625 9.210938 -8.648438 8.890625 -9.015625 C 8.566406 -9.378906 8.066406 -9.5625 7.390625 -9.5625 C 6.554688 -9.5625 5.894531 -9.28125 5.40625 -8.71875 C 4.925781 -8.164062 4.6875 -7.304688 4.6875 -6.140625 L 4.6875 0 Z M 1.703125 0 "/></g></g></g><g fill="#000000" fill-opacity="1"><g transform="translate(228.909635, 68.295992)"><g><path d="M 11.703125 -5.25 L 4.09375 -5.25 C 4.175781 -4.21875 4.46875 -3.46875 4.96875 -3 C 5.46875 -2.53125 6.15625 -2.296875 7.03125 -2.296875 C 7.707031 -2.296875 8.253906 -2.421875 8.671875 -2.671875 C 9.097656 -2.929688 9.441406 -3.316406 9.703125 -3.828125 L 9.921875 -3.828125 L 11.90625 -2.5625 C 11.519531 -1.738281 10.9375 -1.066406 10.15625 -0.546875 C 9.375 -0.0351562 8.332031 0.21875 7.03125 0.21875 C 5.800781 0.21875 4.738281 -0.0078125 3.84375 -0.46875 C 2.957031 -0.9375 2.269531 -1.628906 1.78125 -2.546875 C 1.300781 -3.472656 1.0625 -4.597656 1.0625 -5.921875 C 1.0625 -7.265625 1.316406 -8.394531 1.828125 -9.3125 C 2.335938 -10.238281 3.023438 -10.929688 3.890625 -11.390625 C 4.753906 -11.847656 5.726562 -12.078125 6.8125 -12.078125 C 8.488281 -12.078125 9.769531 -11.628906 10.65625 -10.734375 C 11.550781 -9.847656 12 -8.546875 12 -6.828125 C 12 -6.203125 11.976562 -5.71875 11.9375 -5.375 Z M 9.15625 -7.171875 C 9.125 -8.078125 8.910156 -8.734375 8.515625 -9.140625 C 8.128906 -9.554688 7.5625 -9.765625 6.8125 -9.765625 C 5.3125 -9.765625 4.425781 -8.898438 4.15625 -7.171875 Z M 9.15625 -7.171875 "/></g></g></g><g fill="#000000" fill-opacity="1"><g transform="translate(241.787235, 68.295992)"><g><path d="M 1.703125 0 L 1.703125 -16.609375 L 4.6875 -16.609375 L 4.6875 -10.296875 L 4.90625 -10.265625 C 5.300781 -10.835938 5.785156 -11.28125 6.359375 -11.59375 C 6.929688 -11.914062 7.625 -12.078125 8.4375 -12.078125 C 11.050781 -12.078125 12.359375 -10.59375 12.359375 -7.625 L 12.359375 0 L 9.375 0 L 9.375 -7.25 C 9.375 -8.0625 9.210938 -8.648438 8.890625 -9.015625 C 8.566406 -9.378906 8.066406 -9.5625 7.390625 -9.5625 C 6.554688 -9.5625 5.894531 -9.28125 5.40625 -8.71875 C 4.925781 -8.164062 4.6875 -7.304688 4.6875 -6.140625 L 4.6875 0 Z M 1.703125 0 "/></g></g></g><g fill="#000000" fill-opacity="1"><g transform="translate(255.663677, 68.295992)"><g><path d="M 11.703125 -5.25 L 4.09375 -5.25 C 4.175781 -4.21875 4.46875 -3.46875 4.96875 -3 C 5.46875 -2.53125 6.15625 -2.296875 7.03125 -2.296875 C 7.707031 -2.296875 8.253906 -2.421875 8.671875 -2.671875 C 9.097656 -2.929688 9.441406 -3.316406 9.703125 -3.828125 L 9.921875 -3.828125 L 11.90625 -2.5625 C 11.519531 -1.738281 10.9375 -1.066406 10.15625 -0.546875 C 9.375 -0.0351562 8.332031 0.21875 7.03125 0.21875 C 5.800781 0.21875 4.738281 -0.0078125 3.84375 -0.46875 C 2.957031 -0.9375 2.269531 -1.628906 1.78125 -2.546875 C 1.300781 -3.472656 1.0625 -4.597656 1.0625 -5.921875 C 1.0625 -7.265625 1.316406 -8.394531 1.828125 -9.3125 C 2.335938 -10.238281 3.023438 -10.929688 3.890625 -11.390625 C 4.753906 -11.847656 5.726562 -12.078125 6.8125 -12.078125 C 8.488281 -12.078125 9.769531 -11.628906 10.65625 -10.734375 C 11.550781 -9.847656 12 -8.546875 12 -6.828125 C 12 -6.203125 11.976562 -5.71875 11.9375 -5.375 Z M 9.15625 -7.171875 C 9.125 -8.078125 8.910156 -8.734375 8.515625 -9.140625 C 8.128906 -9.554688 7.5625 -9.765625 6.8125 -9.765625 C 5.3125 -9.765625 4.425781 -8.898438 4.15625 -7.171875 Z M 9.15625 -7.171875 "/></g></g></g></svg>